<svg width="37.519" height="37.519" xmlns="http://www.w3.org/2000/svg" xml:space="preserve" version="1.1">

 <g>
  <title>Layer 1</title>
  <g id="svg_1">
   <path id="svg_2" d="m37.087,17.705c-0.334,-0.338 -8.284,-8.276 -18.327,-8.276s-17.994,7.938 -18.327,8.276c-0.577,0.584 -0.577,1.523 0,2.107c0.333,0.34 8.284,8.277 18.327,8.277s17.993,-7.938 18.327,-8.275c0.575,-0.584 0.575,-1.524 0,-2.109zm-18.327,7.384c-6.721,0 -12.604,-4.291 -15.022,-6.332c2.411,-2.04 8.281,-6.328 15.022,-6.328c6.72,0 12.604,4.292 15.021,6.332c-2.412,2.041 -8.28,6.328 -15.021,6.328zm0,-12.08c3.176,0 5.75,2.574 5.75,5.75c0,3.175 -2.574,5.75 -5.75,5.75c-3.177,0 -5.75,-2.574 -5.75,-5.75c0,-3.175 2.573,-5.75 5.75,-5.75z"/>
  </g>
  <g id="svg_3"/>
  <g id="svg_4"/>
  <g id="svg_5"/>
  <g id="svg_6"/>
  <g id="svg_7"/>
  <g id="svg_8"/>
  <g id="svg_9"/>
  <g id="svg_10"/>
  <g id="svg_11"/>
  <g id="svg_12"/>
  <g id="svg_13"/>
  <g id="svg_14"/>
  <g id="svg_15"/>
  <g id="svg_16"/>
  <g id="svg_17"/>
  <line filter="url(#svg_20_blur)" stroke-width="3" stroke-linecap="undefined" stroke-linejoin="undefined" id="svg_20" y2="35.01543" x2="2" y1="3" x1="34.87325" stroke="#000" fill="none"/>
  <line stroke-width="3" stroke-linecap="undefined" stroke-linejoin="undefined" id="svg_23" y2="32" x2="4.82585" y1="4.58888" x1="32.97751" stroke="#000" fill="none"/>
 </g>
</svg>